<svg width="16" height="17" viewBox="0 0 16 17" fill="none" xmlns="http://www.w3.org/2000/svg">
<path d="M2.66699 9.55591H6.66699C6.82111 9.55599 6.96914 9.61684 7.07812 9.72583C7.18711 9.83482 7.24796 9.98284 7.24805 10.137L7.24805 14.137C7.24805 14.291 7.18699 14.4391 7.07812 14.5481C6.96914 14.6571 6.82111 14.7189 6.66699 14.719H2.66699C2.51275 14.719 2.36492 14.6572 2.25586 14.5481C2.1468 14.439 2.08496 14.2912 2.08496 14.137V10.137C2.08505 9.98284 2.14687 9.83482 2.25586 9.72583C2.36489 9.61697 2.51291 9.55591 2.66699 9.55591ZM11.333 9.55591C12.7566 9.55591 13.9149 10.7134 13.915 12.137C13.915 13.5606 12.7567 14.719 11.333 14.719C9.90949 14.7188 8.75195 13.5605 8.75195 12.137C8.75213 10.7136 9.9096 9.55608 11.333 9.55591ZM3.24805 13.5559H6.08496L6.08496 10.719H3.24805L3.24805 13.5559ZM11.333 10.719C10.5509 10.7192 9.91522 11.3549 9.91504 12.137C9.91504 12.9192 10.5508 13.5557 11.333 13.5559C12.1153 13.5559 12.752 12.9193 12.752 12.137C12.7518 11.3548 12.1152 10.719 11.333 10.719ZM2.66699 2.88892L6.66699 2.88892C6.82111 2.889 6.96914 2.95083 7.07812 3.05981C7.18699 3.16885 7.24805 3.31686 7.24805 3.47095V7.47095C7.24796 7.62507 7.18711 7.77309 7.07812 7.88208C6.96914 7.99107 6.82111 8.05192 6.66699 8.052H2.66699C2.51291 8.052 2.36489 7.99094 2.25586 7.88208C2.14687 7.77309 2.08505 7.62507 2.08496 7.47095L2.08496 3.47095C2.08496 3.31671 2.1468 3.16888 2.25586 3.05981C2.36492 2.95075 2.51275 2.88892 2.66699 2.88892ZM9.33301 2.88892H13.333C13.4872 2.88892 13.6351 2.95075 13.7441 3.05981C13.8532 3.16888 13.915 3.31671 13.915 3.47095V7.47095C13.915 7.62507 13.8531 7.77309 13.7441 7.88208C13.6351 7.99094 13.4871 8.052 13.333 8.052H9.33301C9.17889 8.05192 9.03086 7.99107 8.92188 7.88208C8.81289 7.77309 8.75204 7.62507 8.75195 7.47095V3.47095C8.75195 3.31686 8.81302 3.16885 8.92188 3.05981C9.03086 2.95083 9.17889 2.889 9.33301 2.88892ZM3.24805 6.88892H6.08496V4.052H3.24805V6.88892ZM9.91504 6.88892L12.752 6.88892V4.052L9.91504 4.052V6.88892Z" fill="#424242" stroke="#424242" stroke-width="0.170213"/>
</svg>
