<svg width="18" height="18" viewBox="0 0 18 18" fill="none" xmlns="http://www.w3.org/2000/svg">
<g clip-path="url(#clip0_9_1153)">
<path fill-rule="evenodd" clip-rule="evenodd" d="M8.06464 15.9207C8.4066 15.973 8.75683 16.0001 9.11346 16.0001C12.9104 16.0001 15.9885 12.9221 15.9885 9.12513C15.9885 5.32812 12.9104 2.25007 9.11346 2.25007C8.85872 2.25007 8.60717 2.26393 8.35964 2.29093C10.2431 3.71789 11.4885 6.18977 11.4885 9.00011C11.4885 11.9547 10.112 14.5351 8.06464 15.9207ZM8.98844 18.0002C13.959 18.0002 17.9885 13.9707 17.9885 9.00011C17.9885 4.02952 13.959 6.10352e-05 8.98844 6.10352e-05C4.01785 6.10352e-05 -0.0115967 4.02952 -0.0115967 9.00011C-0.0115967 13.9707 4.01785 18.0002 8.98844 18.0002Z" fill="#FAFAFA"/>
</g>
<defs>
<clipPath id="clip0_9_1153">
<rect width="18.0001" height="18.0001" fill="white" transform="translate(0.000244141)"/>
</clipPath>
</defs>
</svg>
