<svg width="18" height="18" viewBox="0 0 18 18" fill="none" xmlns="http://www.w3.org/2000/svg">
<g clip-path="url(#clip0_9_1161)">
<path fill-rule="evenodd" clip-rule="evenodd" d="M3.61197 14.2727L6.49909 13.4356L8.99273 17.9951C8.996 18.001 9.00448 18.001 9.00771 17.9951L11.5014 13.4356L14.3885 14.2727C14.395 14.2746 14.401 14.2686 14.3991 14.2621L13.5618 11.4321L17.9955 9.00722C18.0015 9.00399 18.0015 8.99551 17.9956 8.99228L13.5252 6.54736L14.3991 3.59387C14.401 3.5874 14.395 3.58139 14.3885 3.58325L11.4336 4.44005L9.00771 0.00443632C9.00448 -0.00147867 8.996 -0.00147883 8.99277 0.00443618L6.56683 4.44005L3.61197 3.58325C3.6055 3.58139 3.59949 3.5874 3.60142 3.59387L4.47524 6.54736L0.0049246 8.99228C-0.000990387 8.99551 -0.000990552 9.00399 0.00492446 9.00722L4.43867 11.4321L3.60142 14.2621C3.59949 14.2686 3.6055 14.2746 3.61197 14.2727ZM5.85235 9.03085L7.89772 10.1495L9.01636 12.1948C9.01959 12.2008 9.0281 12.2008 9.03134 12.1948L10.15 10.1495L12.1953 9.03085C12.2012 9.02761 12.2012 9.0191 12.1953 9.01587L10.15 7.89723L9.03134 5.8519C9.0281 5.84595 9.01959 5.84595 9.01636 5.8519L7.89772 7.89723L5.85235 9.01587C5.84644 9.0191 5.84644 9.02761 5.85235 9.03085Z" fill="#FAFAFA"/>
</g>
<defs>
<clipPath id="clip0_9_1161">
<rect width="18.0001" height="18.0001" fill="white" transform="translate(0.000488281)"/>
</clipPath>
</defs>
</svg>
