<svg width="18" height="18" viewBox="0 0 18 18" fill="none" xmlns="http://www.w3.org/2000/svg">
<g clip-path="url(#clip0_9_1159)">
<path fill-rule="evenodd" clip-rule="evenodd" d="M12.3844 13.9008C12.6068 13.0876 12.1751 11.4158 12.1751 11.4158C12.1751 11.4158 11.862 12.7778 11.3727 13.2811C10.9554 13.7105 10.444 14.0083 9.71066 14.0866C10.3102 13.7953 10.7226 13.1881 10.7226 12.4862C10.7226 11.5009 9.91006 10.7021 8.90775 10.7021C7.90544 10.7021 7.09287 11.5009 7.09287 12.4862C7.09287 12.7553 7.15352 13.0105 7.26205 13.2393C6.63514 12.7398 6.53656 11.9391 6.53656 11.9391C6.53656 11.9391 5.83652 14.8455 7.76542 16.2126C9.69427 17.5798 13.4729 16.4047 13.4729 16.4047C13.4729 16.4047 8.06548 20.2094 4.05856 16.0684C0.606924 12.5013 3.15768 7.80502 3.15768 7.80502C3.15768 7.80502 3.04752 8.24068 3.04752 8.7464C3.04752 9.25213 3.32171 9.63691 3.32171 9.63691C3.32171 9.63691 4.13963 7.91288 4.77617 7.21175C5.37861 6.54821 6.13381 6.01004 6.7861 5.5452C7.2882 5.18738 7.72934 4.87301 7.99281 4.57836C9.44396 2.95574 8.55419 0.000183105 8.55419 0.000183105C8.55419 0.000183105 10.19 1.4423 10.6467 3.30481C10.8208 4.01477 10.7088 4.82256 10.6087 5.54492C10.4461 6.71759 10.3147 7.66517 11.4891 7.60368C13.3869 7.50429 11.7378 4.57836 11.7378 4.57836C11.7378 4.57836 16.0428 6.84103 15.7211 10.7983C15.3995 14.7556 11.0156 15.6552 11.0156 15.6552C11.0156 15.6552 12.1619 14.714 12.3844 13.9008Z" fill="#FAFAFA"/>
</g>
<defs>
<clipPath id="clip0_9_1159">
<rect width="18.0001" height="18.0001" fill="white" transform="translate(0.000488281)"/>
</clipPath>
</defs>
</svg>
