<svg width="18" height="18" viewBox="0 0 18 18" fill="none" xmlns="http://www.w3.org/2000/svg">
<g clip-path="url(#clip0_9_1147)">
<path fill-rule="evenodd" clip-rule="evenodd" d="M6.28385 16.7953C8.92069 16.7953 11.1782 15.3298 12.1101 13.2523C12.1215 13.227 8.36845 14.2276 8.48813 13.8739C8.54157 13.7159 10.8422 12.8755 12.5184 11.8952C13.4817 11.3317 13.9254 10.139 13.9254 10.139C13.9254 10.139 12.3023 10.927 11.4818 11.1269C9.82833 11.5298 8.37282 11.4864 8.37282 11.4445C8.37282 11.3537 10.7896 10.8945 14.1488 8.84748C15.7288 7.88465 16.158 6.22618 16.158 6.22618C16.158 6.22618 14.4208 7.26091 13.3707 7.60252C10.8804 8.41263 8.6078 8.65676 8.6078 8.54714C8.6078 8.31244 10.6077 7.76248 12.7282 6.73504C13.8307 6.20083 14.7855 5.50291 15.892 4.72676C17.7025 3.45687 18.001 1.19519 18.001 1.19519C18.001 1.19519 16.2154 2.34692 15.344 2.7294C11.7482 4.30763 8.57314 5.13549 6.28385 5.31472C2.82812 5.58528 0.000976562 7.99642 0.000976562 11.1269C0.000976562 14.2575 2.81391 16.7953 6.28385 16.7953Z" fill="#FAFAFA"/>
</g>
<defs>
<clipPath id="clip0_9_1147">
<rect width="18.0001" height="18.0001" fill="white" transform="translate(0.000976562)"/>
</clipPath>
</defs>
</svg>
