<svg width="18" height="18" viewBox="0 0 18 18" fill="none" xmlns="http://www.w3.org/2000/svg">
<g clip-path="url(#clip0_9_1160)">
<path fill-rule="evenodd" clip-rule="evenodd" d="M12.9715 17.9378C11.3479 18.0209 9.48907 18.0209 8.85738 17.9378C3.92992 17.2895 0.000488281 13.6869 0.000488281 8.81723C0.000488281 3.94761 4.02994 0 9.00054 0C13.9711 0 18.0006 3.94761 18.0006 8.81723C18.0006 11.082 17.129 13.1474 15.6964 14.709C15.3074 15.133 15.8412 15.4304 16.3835 15.7326C16.9153 16.0291 17.4554 16.33 17.1415 16.7595C16.7956 17.2327 14.9206 17.838 12.9715 17.9378ZM7.73491 7.71508C7.73491 8.47594 7.10529 9.09276 6.32865 9.09276C5.55201 9.09276 4.92239 8.47594 4.92239 7.71508C4.92239 7.20478 5.20557 6.75932 5.62636 6.5212C5.65059 7.18464 6.19607 7.71505 6.86545 7.71505H7.73491V7.71508ZM12.0935 6.5212C12.0692 7.18464 11.5237 7.71505 10.8544 7.71505H9.98492V7.71508C9.98492 8.47594 10.6145 9.09276 11.3912 9.09276C12.1678 9.09276 12.7974 8.47594 12.7974 7.71508C12.7974 7.20478 12.5142 6.75932 12.0935 6.5212Z" fill="#FAFAFA"/>
</g>
<defs>
<clipPath id="clip0_9_1160">
<rect width="18.0001" height="18.0001" fill="white" transform="translate(0.000488281)"/>
</clipPath>
</defs>
</svg>
