<svg width="18" height="18" viewBox="0 0 18 18" fill="none" xmlns="http://www.w3.org/2000/svg">
<g clip-path="url(#clip0_9_1157)">
<path fill-rule="evenodd" clip-rule="evenodd" d="M3.42546 15.4918C3.36368 15.4337 3.30258 15.3745 3.24218 15.3141C0.0540376 12.126 0.0540381 6.95694 3.24218 3.76881C6.43031 0.580654 16.589 0.367371 16.589 0.367371C16.589 0.367371 17.9756 12.126 14.7875 15.3141C11.956 18.1456 7.56207 18.4623 4.38101 16.2644L6.9442 13.1189L11.0417 12.2343L7.69693 11.8999L9.82256 9.7356L12.2422 9.20554L10.3289 8.63893L12.2422 5.18741L9.52071 8.23997L8.46977 6.75697L8.83973 9.20554L6.9442 11.3424L6.06553 8.63889V12.2343L3.42546 15.4918Z" fill="#FAFAFA"/>
</g>
<defs>
<clipPath id="clip0_9_1157">
<rect width="18.0001" height="18.0001" fill="white" transform="translate(0.000732422)"/>
</clipPath>
</defs>
</svg>
