<svg width="18" height="18" viewBox="0 0 18 18" fill="none" xmlns="http://www.w3.org/2000/svg">
<g clip-path="url(#clip0_9_1149)">
<path fill-rule="evenodd" clip-rule="evenodd" d="M3.96511 15.4601C3.96023 15.4601 3.95682 15.4552 3.95843 15.4506L8.55391 2.46553C8.55493 2.4627 8.5576 2.46082 8.56059 2.46082H13.4664C13.4694 2.46082 13.4721 2.46272 13.4731 2.46556L18.0004 15.4507C18.002 15.4553 17.9985 15.4601 17.9937 15.4601H4.10321H3.96511ZM0.00780963 15.5109C0.00287388 15.5109 -0.000543236 15.5059 0.00118808 15.5013L3.4233 6.36515C3.42434 6.36237 3.42698 6.36054 3.42993 6.36054H6.40335C6.40828 6.36054 6.41169 6.36543 6.41 6.37004L3.10091 15.5062C3.0999 15.509 3.09724 15.5109 3.09426 15.5109H0.00780963Z" fill="#FAFAFA"/>
</g>
<defs>
<clipPath id="clip0_9_1149">
<rect width="18.0001" height="18.0001" fill="white" transform="translate(0.000732422)"/>
</clipPath>
</defs>
</svg>
