<svg width="33" height="32" viewBox="0 0 33 32" fill="none" xmlns="http://www.w3.org/2000/svg">
<rect x="1.60791" y="1" width="30" height="30" rx="15" fill="#757575" fill-opacity="0.6"/>
<rect x="1.60791" y="1" width="30" height="30" rx="15" stroke="#FAFAFA" stroke-width="2"/>
<g clip-path="url(#clip0_2032_191)">
<path d="M22.5012 11.0733C22.1607 10.7327 21.7564 10.4624 21.3115 10.2781C20.8665 10.0937 20.3896 9.99879 19.9079 9.99879C19.4262 9.99879 18.9493 10.0937 18.5043 10.2781C18.0594 10.4624 17.6551 10.7327 17.3146 11.0733L16.6079 11.78L15.9012 11.0733C15.2134 10.3856 14.2806 9.99915 13.3079 9.99915C12.3352 9.99915 11.4024 10.3856 10.7146 11.0733C10.0268 11.7611 9.64038 12.694 9.64038 13.6667C9.64038 14.6394 10.0268 15.5722 10.7146 16.26L11.4212 16.9667L16.6079 22.1533L21.7946 16.9667L22.5012 16.26C22.8419 15.9195 23.1121 15.5152 23.2965 15.0702C23.4809 14.6253 23.5758 14.1483 23.5758 13.6667C23.5758 13.185 23.4809 12.7081 23.2965 12.2631C23.1121 11.8181 22.8419 11.4138 22.5012 11.0733V11.0733Z" stroke="#FAFAFA" stroke-width="1.5" stroke-linecap="round" stroke-linejoin="round"/>
</g>
<defs>
<clipPath id="clip0_2032_191">
<rect width="16" height="16" fill="white" transform="translate(8.60791 8)"/>
</clipPath>
</defs>
</svg>
