<svg width="63" height="25" viewBox="0 0 63 25" fill="none" xmlns="http://www.w3.org/2000/svg">
<path d="M24.8209 13.8877L30.4677 19.1595C30.7021 19.3783 31.0115 19.5002 31.3334 19.5002C31.6552 19.5002 31.9646 19.3783 32.199 19.1595L37.8459 13.8877C38.7959 13.0033 39.3334 11.7627 39.3334 10.4658V10.2845C39.3334 8.10017 37.7552 6.23767 35.6021 5.87829C34.1771 5.64079 32.7271 6.10642 31.7084 7.12517L31.3334 7.50017L30.9584 7.12517C29.9396 6.10642 28.4896 5.64079 27.0646 5.87829C24.9115 6.23767 23.3334 8.10017 23.3334 10.2845V10.4658C23.3334 11.7627 23.8709 13.0033 24.8209 13.8877Z" fill="#424242"/>
</svg>
