<svg width="16" height="17" viewBox="0 0 16 17" fill="none" xmlns="http://www.w3.org/2000/svg">
<path d="M13.125 13.8661H2.875C2.80625 13.8661 2.75 13.9223 2.75 13.9911L2.75 14.9286C2.75 14.9973 2.80625 15.0536 2.875 15.0536H13.125C13.1938 15.0536 13.25 14.9973 13.25 14.9286V13.9911C13.25 13.9223 13.1938 13.8661 13.125 13.8661ZM13.125 2.55359L2.875 2.55359C2.80625 2.55359 2.75 2.60984 2.75 2.67859V3.61609C2.75 3.68484 2.80625 3.74109 2.875 3.74109L13.125 3.74109C13.1938 3.74109 13.25 3.68484 13.25 3.61609V2.67859C13.25 2.60984 13.1938 2.55359 13.125 2.55359ZM9.54375 6.70984C9.6375 6.70984 9.69063 6.60046 9.63281 6.52703L8.05781 4.53328C8.04739 4.51978 8.03401 4.50886 8.01871 4.50135C8.0034 4.49383 7.98658 4.48992 7.96953 4.48992C7.95248 4.48992 7.93566 4.49383 7.92036 4.50135C7.90505 4.50886 7.89167 4.51978 7.88125 4.53328L6.30625 6.52703C6.29313 6.54371 6.28497 6.56375 6.28271 6.58485C6.28046 6.60595 6.28419 6.62727 6.29348 6.64635C6.30278 6.66543 6.31726 6.6815 6.33527 6.69273C6.35328 6.70396 6.37409 6.70989 6.39531 6.70984H7.4375L7.4375 10.8973H6.45625C6.3625 10.8973 6.30938 11.0067 6.36719 11.0802L7.94219 13.0723C7.9875 13.1302 8.075 13.1302 8.11875 13.0723L9.69375 11.0802C9.75156 11.0067 9.7 10.8973 9.60469 10.8973H8.5625V6.70984H9.54375Z" fill="#424242"/>
</svg>
