<svg width="62" height="25" viewBox="0 0 62 25" fill="none" xmlns="http://www.w3.org/2000/svg">
<path d="M31.6812 4.76865C31.2968 4.4124 30.7031 4.4124 30.3218 4.76865L23.3218 11.2687C23.0218 11.5499 22.9218 11.9843 23.0718 12.3655C23.2218 12.7468 23.5875 12.9999 24 12.9999H24.5V18.4999C24.5 19.603 25.3968 20.4999 26.5 20.4999H35.5C36.6031 20.4999 37.5 19.603 37.5 18.4999V12.9999H38C38.4125 12.9999 38.7812 12.7468 38.9312 12.3655C39.0812 11.9843 38.9812 11.5468 38.6812 11.2687L31.6812 4.76865ZM30.5 14.4999H31.5C32.3281 14.4999 33 15.1718 33 15.9999V18.9999H29V15.9999C29 15.1718 29.6718 14.4999 30.5 14.4999Z" fill="#1565C0"/>
</svg>
