<svg width="18" height="18" viewBox="0 0 18 18" fill="none" xmlns="http://www.w3.org/2000/svg">
<g clip-path="url(#clip0_9_1158)">
<path fill-rule="evenodd" clip-rule="evenodd" d="M13.2982 1.0194L13.3536 5.8833L9.11123 7.9198L9.05892 3.32735L13.2982 1.0194Z" fill="#FAFAFA"/>
<path fill-rule="evenodd" clip-rule="evenodd" d="M17.551 8.68398L13.3514 11.0861L9.14926 8.68018L13.3492 6.47405L17.551 8.68398Z" fill="#FAFAFA"/>
<path fill-rule="evenodd" clip-rule="evenodd" d="M8.40247 8.68398L4.20286 11.0861L0.000732422 8.68018L4.20068 6.47405L8.40247 8.68398Z" fill="#FAFAFA"/>
<path fill-rule="evenodd" clip-rule="evenodd" d="M4.15518 0.999756L8.51409 3.15856L8.40264 7.86306L4.28702 5.82476L4.15518 0.999756Z" fill="#FAFAFA"/>
<path fill-rule="evenodd" clip-rule="evenodd" d="M13.4173 16.2943L9.05843 14.1354L9.16987 9.43092L13.2855 11.4693L13.4173 16.2943Z" fill="#FAFAFA"/>
<path fill-rule="evenodd" clip-rule="evenodd" d="M4.30634 16.3382L4.25093 11.4743L8.49329 9.43779L8.54561 14.0302L4.30634 16.3382Z" fill="#FAFAFA"/>
</g>
<defs>
<clipPath id="clip0_9_1158">
<rect width="18" height="18" fill="white" transform="translate(0.000732422)"/>
</clipPath>
</defs>
</svg>
