<svg width="18" height="18" viewBox="0 0 18 18" fill="none" xmlns="http://www.w3.org/2000/svg">
<g clip-path="url(#clip0_9_1148)">
<path fill-rule="evenodd" clip-rule="evenodd" d="M15.0416 13.8323C16.8593 12.3789 18.0011 10.2789 18.0011 7.9436C18.0011 3.55646 13.9716 0 9.00103 0C4.03043 0 0.000976562 3.55646 0.000976562 7.9436C0.000976562 10.1946 1.06178 12.2269 2.76622 13.6724C2.66292 14.029 2.60625 14.417 2.60625 14.8227C2.60625 16.5775 3.66663 18.0001 4.9747 18.0001C5.82464 18.0001 6.57003 17.3995 6.98786 16.4973C7.4057 17.3995 8.15108 18.0001 9.00103 18.0001C9.7758 18.0001 10.4637 17.501 10.8958 16.7294C11.3279 17.501 12.0158 18.0001 12.7905 18.0001C14.0986 18.0001 15.159 16.5775 15.159 14.8227C15.159 14.4769 15.1178 14.1439 15.0416 13.8323ZM14.2116 8.10113C14.2116 10.3284 11.8257 12.134 8.88262 12.134C5.9395 12.134 3.55364 10.3284 3.55364 8.10113C3.55364 5.87383 5.9395 4.06823 8.88262 4.06823C11.8257 4.06823 14.2116 5.87383 14.2116 8.10113Z" fill="#FAFAFA"/>
</g>
<defs>
<clipPath id="clip0_9_1148">
<rect width="18.0001" height="18.0001" fill="white" transform="translate(0.000976562)"/>
</clipPath>
</defs>
</svg>
