<svg width="16" height="17" viewBox="0 0 16 17" fill="none" xmlns="http://www.w3.org/2000/svg">
<g clip-path="url(#clip0_2096_220)">
<path d="M8.00016 15.4707C11.6822 15.4707 14.6668 12.486 14.6668 8.804C14.6668 5.122 11.6822 2.13733 8.00016 2.13733C4.31816 2.13733 1.3335 5.122 1.3335 8.804C1.3335 12.486 4.31816 15.4707 8.00016 15.4707Z" stroke="#424242" stroke-linecap="round" stroke-linejoin="round"/>
<path d="M8.00024 10.8037C8.53068 10.8037 9.03939 10.593 9.41446 10.2179C9.78953 9.84285 10.0002 9.33414 10.0002 8.80371C10.0002 8.27328 9.78953 7.76457 9.41446 7.3895C9.03939 7.01442 8.53068 6.80371 8.00024 6.80371C7.46981 6.80371 6.9611 7.01442 6.58603 7.3895C6.21096 7.76457 6.00024 8.27328 6.00024 8.80371C6.00024 9.33414 6.21096 9.84285 6.58603 10.2179C6.9611 10.593 7.46981 10.8037 8.00024 10.8037V10.8037Z" stroke="#424242" stroke-linecap="round" stroke-linejoin="round"/>
<path d="M1.3335 8.80383H6.00016M10.0002 8.80383H14.6668" stroke="#424242"/>
</g>
<defs>
<clipPath id="clip0_2096_220">
<rect width="16" height="16" fill="white" transform="translate(0 0.803955)"/>
</clipPath>
</defs>
</svg>
