<svg width="62" height="25" viewBox="0 0 62 25" fill="none" xmlns="http://www.w3.org/2000/svg">
<path d="M31 12.25C31.4925 12.25 31.9801 12.153 32.4351 11.9645C32.89 11.7761 33.3034 11.4999 33.6517 11.1517C33.9999 10.8034 34.2761 10.39 34.4645 9.93506C34.653 9.48009 34.75 8.99246 34.75 8.5C34.75 8.00754 34.653 7.51991 34.4645 7.06494C34.2761 6.60997 33.9999 6.19657 33.6517 5.84835C33.3034 5.50013 32.89 5.22391 32.4351 5.03545C31.9801 4.847 31.4925 4.75 31 4.75C30.5075 4.75 30.0199 4.847 29.5649 5.03545C29.11 5.22391 28.6966 5.50013 28.3483 5.84835C28.0001 6.19657 27.7239 6.60997 27.5355 7.06494C27.347 7.51991 27.25 8.00754 27.25 8.5C27.25 8.99246 27.347 9.48009 27.5355 9.93506C27.7239 10.39 28.0001 10.8034 28.3483 11.1517C28.6966 11.4999 29.11 11.7761 29.5649 11.9645C30.0199 12.153 30.5075 12.25 31 12.25ZM30.0719 14C26.9938 14 24.5 16.4937 24.5 19.5719C24.5 20.0844 24.9156 20.5 25.4281 20.5H36.5719C37.0844 20.5 37.5 20.0844 37.5 19.5719C37.5 16.4937 35.0063 14 31.9281 14H30.0719Z" fill="#424242"/>
</svg>
