<svg width="18" height="18" viewBox="0 0 18 18" fill="none" xmlns="http://www.w3.org/2000/svg">
<g clip-path="url(#clip0_9_1150)">
<path fill-rule="evenodd" clip-rule="evenodd" d="M16.0293 14.9477C16.0293 14.9477 13.7596 16.7681 9.24299 16.0148C5.81629 15.4432 3.98865 11.6658 3.98865 9.6354C3.98865 4.82143 7.55161 3.72592 9.96042 3.72592C12.3692 3.72592 13.9406 6.07437 13.9406 7.89266C13.9406 9.71095 12.6546 11.3014 10.6532 11.3014C8.6519 11.3014 8.05917 9.89633 8.05917 8.60458C8.05917 7.31286 9.10426 6.85776 10.0574 6.85776C11.0105 6.85776 11.3369 7.67149 11.3369 8.37086C11.3369 9.07026 10.7942 9.32071 10.3416 9.32071C9.88902 9.32071 9.84427 9.09237 9.67105 8.8524C9.4978 8.61245 9.89198 7.70415 9.24299 7.70415C8.594 7.70415 8.47303 8.74833 8.47303 8.74833C8.47303 8.74833 8.70963 10.764 10.6532 10.7292C12.5968 10.6944 13.5189 9.1918 13.2509 7.70415C12.983 6.21647 11.5392 4.63566 9.00533 4.95509C6.47147 5.27452 5.43692 7.83476 5.89293 10.5708C6.34895 13.3068 9.62669 14.8921 12.2038 14.3218C14.781 13.7514 17.3478 11.8857 17.3478 7.15525C17.3478 2.42481 13.2509 -0.418613 8.36576 0.0499994C3.4806 0.518609 0.448113 4.78954 0.642218 9.92115C0.836324 15.0528 5.70562 17.8476 9.8231 17.9916C13.9406 18.1357 16.4648 15.7522 16.4648 15.7522C16.4648 15.7522 17.0325 15.246 16.8099 14.8507C16.5873 14.4554 16.0293 14.9477 16.0293 14.9477Z" fill="#FAFAFA"/>
</g>
<defs>
<clipPath id="clip0_9_1150">
<rect width="18.0001" height="18.0001" fill="white" transform="translate(0.000488281)"/>
</clipPath>
</defs>
</svg>
