<svg width="63" height="25" viewBox="0 0 63 25" fill="none" xmlns="http://www.w3.org/2000/svg">
<path d="M34.6666 12.5C34.6666 13.1938 34.6291 13.8625 34.5635 14.5H28.7729C28.7041 13.8625 28.6698 13.1938 28.6698 12.5C28.6698 11.8063 28.7073 11.1375 28.7729 10.5H34.5635C34.6323 11.1375 34.6666 11.8063 34.6666 12.5ZM35.5666 10.5H39.4135C39.5791 11.1406 39.6666 11.8094 39.6666 12.5C39.6666 13.1906 39.5791 13.8594 39.4135 14.5H35.5666C35.6323 13.8562 35.6666 13.1875 35.6666 12.5C35.6666 11.8125 35.6323 11.1438 35.5666 10.5ZM39.0854 9.5H35.4385C35.126 7.50312 34.5073 5.83125 33.7104 4.7625C36.1573 5.40938 38.1479 7.18438 39.0823 9.5H39.0854ZM34.426 9.5H28.9073C29.0979 8.3625 29.3916 7.35625 29.751 6.54063C30.0791 5.80313 30.4448 5.26875 30.7979 4.93125C31.1479 4.6 31.4385 4.5 31.6666 4.5C31.8948 4.5 32.1854 4.6 32.5354 4.93125C32.8885 5.26875 33.2541 5.80313 33.5823 6.54063C33.9448 7.35313 34.2354 8.35938 34.426 9.5ZM27.8948 9.5H24.2479C25.1854 7.18438 27.1729 5.40938 29.6229 4.7625C28.826 5.83125 28.2073 7.50312 27.8948 9.5ZM23.9198 10.5H27.7666C27.701 11.1438 27.6666 11.8125 27.6666 12.5C27.6666 13.1875 27.701 13.8562 27.7666 14.5H23.9198C23.7541 13.8594 23.6666 13.1906 23.6666 12.5C23.6666 11.8094 23.7541 11.1406 23.9198 10.5ZM29.751 18.4563C29.3885 17.6438 29.0979 16.6375 28.9073 15.5H34.426C34.2354 16.6375 33.9416 17.6438 33.5823 18.4563C33.2541 19.1938 32.8885 19.7281 32.5354 20.0656C32.1854 20.4 31.8948 20.5 31.6666 20.5C31.4385 20.5 31.1479 20.4 30.7979 20.0688C30.4448 19.7313 30.0791 19.1969 29.751 18.4594V18.4563ZM27.8948 15.5C28.2073 17.4969 28.826 19.1687 29.6229 20.2375C27.1729 19.5906 25.1854 17.8156 24.2479 15.5H27.8948ZM39.0854 15.5C38.1479 17.8156 36.1604 19.5906 33.7135 20.2375C34.5104 19.1687 35.126 17.4969 35.4416 15.5H39.0885H39.0854Z" fill="#424242"/>
</svg>
