<svg width="18" height="18" viewBox="0 0 18 18" fill="none" xmlns="http://www.w3.org/2000/svg">
<g clip-path="url(#clip0_9_1151)">
<path fill-rule="evenodd" clip-rule="evenodd" d="M13.8919 8.60526C13.8909 8.60386 13.8904 8.6021 13.8907 8.60038L15.0391 1.90426C15.0396 1.90118 15.0423 1.89893 15.0454 1.89893H15.4089C15.4117 1.89893 15.4141 1.90074 15.415 1.90342L18.0021 10.095C18.0029 10.0975 18.0021 10.1003 18 10.102L16.0924 11.5913C16.0896 11.5935 16.0854 11.593 16.0833 11.59L13.8919 8.60526ZM-0.0349121 13.0443C-0.0349121 13.0471 -0.0331263 13.0495 -0.0304862 13.0504L3.90173 14.3361C3.90363 14.3367 3.90574 14.3364 3.90739 14.3353L12.6968 8.2673C12.6983 8.26628 12.6993 8.2647 12.6995 8.26294L13.6421 1.9386C13.6427 1.93471 13.6396 1.93123 13.6357 1.93123H5.85049C5.84855 1.93123 5.84676 1.93208 5.84553 1.93355L-0.0334346 9.02563C-0.0343897 9.02679 -0.0349121 9.02823 -0.0349121 9.02974V13.0443ZM5.5403 14.6637L9.83617 16.0709C9.83811 16.0715 9.84025 16.0712 9.8419 16.07L14.9564 12.4014C14.9593 12.3993 14.96 12.3954 14.958 12.3926L13.0408 9.53944C13.0387 9.53645 13.0347 9.53568 13.0318 9.53772L5.5403 14.6637Z" fill="#FAFAFA"/>
</g>
<defs>
<clipPath id="clip0_9_1151">
<rect width="18.0001" height="18.0001" fill="white" transform="translate(0.000488281)"/>
</clipPath>
</defs>
</svg>
