<svg width="18" height="18" viewBox="0 0 18 18" fill="none" xmlns="http://www.w3.org/2000/svg">
<g clip-path="url(#clip0_9_1152)">
<path fill-rule="evenodd" clip-rule="evenodd" d="M0.00228515 8.94874C-0.00010954 8.94467 -0.000110742 8.9396 0.00228195 8.93549L4.52846 1.20228C4.53082 1.19827 4.53514 1.1958 4.53978 1.1958H13.5109C13.5156 1.1958 13.5199 1.19829 13.5223 1.20234L17.9988 8.93556C18.0012 8.9396 18.0012 8.94463 17.9988 8.94867L13.5223 16.6732C13.5199 16.6773 13.5156 16.6798 13.5109 16.6798H4.53978C4.53514 16.6798 4.53082 16.6773 4.52846 16.6733L0.00228515 8.94874ZM13.1707 8.93778C13.1707 11.2401 11.3043 13.1065 9.00194 13.1065C6.69962 13.1065 4.8332 11.2401 4.8332 8.93778C4.8332 6.63542 6.69962 4.76903 9.00194 4.76903C11.3043 4.76903 13.1707 6.63542 13.1707 8.93778Z" fill="#FAFAFA"/>
</g>
<defs>
<clipPath id="clip0_9_1152">
<rect width="18.0001" height="18.0001" fill="white" transform="translate(0.000488281)"/>
</clipPath>
</defs>
</svg>
